<svg xmlns="http://www.w3.org/2000/svg" width="1024" height="1176" viewBox="0 0 1024 1176"><rect width="100%" height="100%" fill="#fff"/>
<image href="first-frame.png" x="16" y="16" width="320" height="180" preserveAspectRatio="xMidYMid meet"/><text x="16" y="220" fill="#111" font-family="system-ui, sans-serif" font-size="16">first-frame @ 0s</text>
<image href="quarter.png" x="352" y="16" width="320" height="180" preserveAspectRatio="xMidYMid meet"/><text x="352" y="220" fill="#111" font-family="system-ui, sans-serif" font-size="16">quarter @ 7.5s</text>
<image href="midpoint.png" x="688" y="16" width="320" height="180" preserveAspectRatio="xMidYMid meet"/><text x="688" y="220" fill="#111" font-family="system-ui, sans-serif" font-size="16">midpoint @ 15s</text>
<image href="three-quarter.png" x="16" y="248" width="320" height="180" preserveAspectRatio="xMidYMid meet"/><text x="16" y="452" fill="#111" font-family="system-ui, sans-serif" font-size="16">three-quarter @ 22.5s</text>
<image href="payoff-frame.png" x="352" y="248" width="320" height="180" preserveAspectRatio="xMidYMid meet"/><text x="352" y="452" fill="#111" font-family="system-ui, sans-serif" font-size="16">payoff-frame @ 29.93s</text>
<image href="hook-mid.png" x="688" y="248" width="320" height="180" preserveAspectRatio="xMidYMid meet"/><text x="688" y="452" fill="#111" font-family="system-ui, sans-serif" font-size="16">hook-mid @ 2.63s</text>
<image href="morning-start.png" x="16" y="480" width="320" height="180" preserveAspectRatio="xMidYMid meet"/><text x="16" y="684" fill="#111" font-family="system-ui, sans-serif" font-size="16">morning-start @ 5.3s</text>
<image href="morning-mid.png" x="352" y="480" width="320" height="180" preserveAspectRatio="xMidYMid meet"/><text x="352" y="684" fill="#111" font-family="system-ui, sans-serif" font-size="16">morning-mid @ 7.9s</text>
<image href="recruiting-start.png" x="688" y="480" width="320" height="180" preserveAspectRatio="xMidYMid meet"/><text x="688" y="684" fill="#111" font-family="system-ui, sans-serif" font-size="16">recruiting-start @ 10.5s</text>
<image href="recruiting-mid.png" x="16" y="712" width="320" height="180" preserveAspectRatio="xMidYMid meet"/><text x="16" y="916" fill="#111" font-family="system-ui, sans-serif" font-size="16">recruiting-mid @ 13.2s</text>
<image href="payroll-start.png" x="352" y="712" width="320" height="180" preserveAspectRatio="xMidYMid meet"/><text x="352" y="916" fill="#111" font-family="system-ui, sans-serif" font-size="16">payroll-start @ 15.9s</text>
<image href="payroll-mid.png" x="688" y="712" width="320" height="180" preserveAspectRatio="xMidYMid meet"/><text x="688" y="916" fill="#111" font-family="system-ui, sans-serif" font-size="16">payroll-mid @ 18.43s</text>
<image href="event-cta-start.png" x="16" y="944" width="320" height="180" preserveAspectRatio="xMidYMid meet"/><text x="16" y="1148" fill="#111" font-family="system-ui, sans-serif" font-size="16">event-cta-start @ 21s</text>
<image href="event-cta-mid.png" x="352" y="944" width="320" height="180" preserveAspectRatio="xMidYMid meet"/><text x="352" y="1148" fill="#111" font-family="system-ui, sans-serif" font-size="16">event-cta-mid @ 25.5s</text>
</svg>
