<svg xmlns="http://www.w3.org/2000/svg" width="1024" height="944" viewBox="0 0 1024 944"><rect width="100%" height="100%" fill="#fff"/>
<image href="first-frame.png" x="16" y="16" width="320" height="180" preserveAspectRatio="xMidYMid meet"/><text x="16" y="220" fill="#111" font-family="system-ui, sans-serif" font-size="16">first-frame @ 0s</text>
<image href="quarter.png" x="352" y="16" width="320" height="180" preserveAspectRatio="xMidYMid meet"/><text x="352" y="220" fill="#111" font-family="system-ui, sans-serif" font-size="16">quarter @ 6s</text>
<image href="midpoint.png" x="688" y="16" width="320" height="180" preserveAspectRatio="xMidYMid meet"/><text x="688" y="220" fill="#111" font-family="system-ui, sans-serif" font-size="16">midpoint @ 12s</text>
<image href="three-quarter.png" x="16" y="248" width="320" height="180" preserveAspectRatio="xMidYMid meet"/><text x="16" y="452" fill="#111" font-family="system-ui, sans-serif" font-size="16">three-quarter @ 18s</text>
<image href="payoff-frame.png" x="352" y="248" width="320" height="180" preserveAspectRatio="xMidYMid meet"/><text x="352" y="452" fill="#111" font-family="system-ui, sans-serif" font-size="16">payoff-frame @ 23.93s</text>
<image href="hook-mid.png" x="688" y="248" width="320" height="180" preserveAspectRatio="xMidYMid meet"/><text x="688" y="452" fill="#111" font-family="system-ui, sans-serif" font-size="16">hook-mid @ 2.3s</text>
<image href="tip1-start.png" x="16" y="480" width="320" height="180" preserveAspectRatio="xMidYMid meet"/><text x="16" y="684" fill="#111" font-family="system-ui, sans-serif" font-size="16">tip1-start @ 4.6s</text>
<image href="tip1-mid.png" x="352" y="480" width="320" height="180" preserveAspectRatio="xMidYMid meet"/><text x="352" y="684" fill="#111" font-family="system-ui, sans-serif" font-size="16">tip1-mid @ 7.5s</text>
<image href="tip2-start.png" x="688" y="480" width="320" height="180" preserveAspectRatio="xMidYMid meet"/><text x="688" y="684" fill="#111" font-family="system-ui, sans-serif" font-size="16">tip2-start @ 10.4s</text>
<image href="tip2-mid.png" x="16" y="712" width="320" height="180" preserveAspectRatio="xMidYMid meet"/><text x="16" y="916" fill="#111" font-family="system-ui, sans-serif" font-size="16">tip2-mid @ 13.23s</text>
<image href="tip3-start.png" x="352" y="712" width="320" height="180" preserveAspectRatio="xMidYMid meet"/><text x="352" y="916" fill="#111" font-family="system-ui, sans-serif" font-size="16">tip3-start @ 16.1s</text>
<image href="tip3-mid.png" x="688" y="712" width="320" height="180" preserveAspectRatio="xMidYMid meet"/><text x="688" y="916" fill="#111" font-family="system-ui, sans-serif" font-size="16">tip3-mid @ 20.03s</text>
</svg>
